<svg width="164" height="59" viewBox="0 0 164 59" fill="none" xmlns="http://www.w3.org/2000/svg">
<path fill-rule="evenodd" clip-rule="evenodd" d="M77.313 23.3669H74.1698V35.6192H77.313C81.2211 35.6192 83.335 33.5379 83.335 29.5C83.3211 25.4483 81.2211 23.3669 77.313 23.3669ZM77.2991 19.662C84.3086 19.662 87.6186 23.797 87.6186 29.5C87.6186 35.203 84.2947 39.338 77.2991 39.338H69.928V19.662H77.2991Z" fill="#2C3144"/>
<path fill-rule="evenodd" clip-rule="evenodd" d="M97.2012 19.662C99.4403 19.662 101.721 20.2032 103.335 21.119V24.9071C101.735 23.7693 99.6072 23.2004 97.4932 23.2281C95.4349 23.2559 94.4057 23.8248 94.4057 24.9904C94.4057 28.2651 104.767 27.044 104.767 33.7738C104.767 38.0198 101.36 39.338 97.382 39.338C94.7534 39.338 92.3196 38.7136 90.3725 37.6312V33.7738C92.5421 35.203 94.9203 35.7719 97.076 35.7719C99.2595 35.7719 100.622 35.314 100.622 33.968C100.622 30.4297 90.2612 31.7479 90.2612 25.0597C90.289 21.3965 93.4739 19.662 97.2012 19.662Z" fill="#2C3144"/>
<path fill-rule="evenodd" clip-rule="evenodd" d="M121.832 19.662V23.3669H112.18V27.5574H120.983V31.2345H112.18V35.6192H121.999V39.3241H107.966V19.662H121.832Z" fill="#2C3144"/>
<path fill-rule="evenodd" clip-rule="evenodd" d="M125.406 39.3241V19.662H129.37L138.535 32.4972C138.479 31.6785 138.451 30.6933 138.451 29.8053V19.662H142.666V39.3241H138.702L129.537 26.489C129.592 27.3076 129.62 28.2928 129.62 29.1809V39.3241H125.406Z" fill="#2C3144"/>
<path fill-rule="evenodd" clip-rule="evenodd" d="M57.439 23.2975C57.4668 22.9367 57.3834 22.5621 57.1886 22.243L55.7144 19.7037H54.1985L56.0482 22.8951C56.1178 23.02 56.1456 23.1588 56.1177 23.2975H57.439Z" fill="#2C3144"/>
<path fill-rule="evenodd" clip-rule="evenodd" d="M67.1188 30.3881L62.4597 38.436C62.1399 38.9911 61.5557 39.3241 60.916 39.3241H51.6117C50.9719 39.3241 50.3878 38.9772 50.0679 38.436L47.3003 33.6489L46.5354 32.3307L45.4089 30.3881C45.089 29.833 45.089 29.1531 45.4089 28.5981L50.0679 20.5501C50.3878 19.9951 50.9719 19.662 51.6117 19.662H54.2124L56.0622 22.8674C56.1317 22.9922 56.1595 23.131 56.1317 23.2698H52.6687L49.0666 29.5L50.6938 32.3307L51.3614 33.4962L52.6548 35.7441H59.859L63.4611 29.5139L59.859 23.2836H57.453C57.4808 22.9229 57.3973 22.5482 57.2026 22.2291L55.7284 19.6759H60.916C61.5557 19.6759 62.1399 20.0089 62.4597 20.564L67.1188 28.612C67.4387 29.1531 67.4387 29.833 67.1188 30.3881Z" fill="#2C3144"/>
<path fill-rule="evenodd" clip-rule="evenodd" d="M46.5633 32.3307H42.6135V33.6489H47.3282L46.5633 32.3307Z" fill="#F17900"/>
<path fill-rule="evenodd" clip-rule="evenodd" d="M57.4669 23.2698C57.453 23.5612 57.3695 23.8387 57.2304 24.1023L52.2654 32.6915C52.0568 33.0383 51.7508 33.3159 51.3892 33.4824L50.7216 32.3168C50.8885 32.2891 51.0415 32.1919 51.125 32.0393L56.0761 23.4502C56.1178 23.3947 56.1317 23.3253 56.1456 23.2698C56.1735 23.131 56.1596 22.9784 56.0761 22.8535L54.2264 19.6621L51.125 14.2782C51.0137 14.0978 50.819 13.9868 50.6104 13.9868H40.6802C40.4716 13.9868 40.2769 14.0978 40.1796 14.2782L35.2145 22.8535C35.1032 23.0478 35.1032 23.2698 35.2145 23.4502L35.6874 24.255L35.7013 24.2827L37.857 28.0292L37.8848 28.0708L38.3994 28.9589V31.5953L37.0642 29.2919L37.0503 29.2641L34.8807 25.5315L34.8668 25.4899L34.0741 24.1023C33.7403 23.5195 33.7403 22.798 34.0741 22.2013L39.0391 13.6122C39.3729 13.0294 39.9988 12.6686 40.6802 12.6686H50.6104C51.2918 12.6686 51.9177 13.0294 52.2654 13.6122L55.7562 19.6621L57.2304 22.2013C57.4113 22.5344 57.4947 22.8951 57.4669 23.2698Z" fill="#F17900"/>
<path d="M38.747 19.662L35.7012 24.2827L37.8569 28.0292L37.8847 28.0708L38.4271 27.2382V39.3241H42.655V19.662H38.747ZM37.0502 29.2641L34.8806 25.5315L32.0156 29.8885L25.2565 19.662H21.3345V39.3241H25.5624V27.2105L30.7639 35.1058H33.2256L37.0641 29.2919L37.0502 29.2641Z" fill="#2C3144"/>
</svg>
